<svg id="svg" version="1.1" xmlns="http://www.w3.org/2000/svg" xmlns:xlink="http://www.w3.org/1999/xlink" width="400" height="400" viewBox="0, 0, 400,400"><g id="svgg"><path id="path0" d="M0.000 200.000 L 0.000 400.000 200.000 400.000 L 400.000 400.000 400.000 200.000 L 400.000 0.000 200.000 0.000 L 0.000 0.000 0.000 200.000 M188.279 98.970 C 192.570 99.912,196.282 101.353,203.541 104.896 C 215.120 110.547,219.863 109.918,220.754 102.615 C 221.044 100.238,223.695 99.208,224.197 101.277 C 224.804 103.778,224.206 150.109,223.562 150.515 C 221.608 151.748,220.993 150.742,220.469 145.458 C 218.094 121.518,204.535 105.808,184.374 103.637 C 166.772 101.742,156.596 109.397,156.746 124.420 C 156.904 140.260,164.569 149.616,192.600 168.183 C 221.980 187.644,230.339 197.449,232.404 214.875 C 235.721 242.864,212.577 260.922,178.400 257.012 C 169.962 256.047,162.274 253.805,155.359 250.293 C 146.536 245.811,136.984 247.247,136.018 253.200 C 135.770 254.729,133.498 255.513,132.748 254.330 C 132.563 254.038,132.409 239.827,132.406 222.749 C 132.399 188.637,132.264 190.443,134.784 190.996 L 136.000 191.264 136.003 194.932 C 136.032 224.726,150.448 246.740,172.465 250.611 C 191.709 253.995,206.354 247.775,209.818 234.747 C 214.131 218.527,205.805 206.471,176.200 186.070 C 142.312 162.716,132.800 151.349,132.800 134.200 C 132.800 115.005,147.208 101.438,171.000 98.229 C 173.738 97.860,185.525 98.365,188.279 98.970 M271.853 103.848 L 274.222 104.095 279.511 119.761 C 282.420 128.377,284.800 135.736,284.800 136.113 C 284.800 136.833,282.081 137.145,281.431 136.500 C 281.264 136.335,280.829 136.182,280.464 136.159 C 280.099 136.137,279.521 136.092,279.180 136.059 C 278.840 136.027,278.332 135.325,278.052 134.500 C 270.770 113.038,262.675 107.216,240.100 107.203 L 234.400 107.200 234.400 105.667 C 234.400 104.823,234.520 104.013,234.667 103.867 C 235.003 103.530,268.652 103.513,271.853 103.848 M187.174 114.647 C 193.086 116.103,199.434 120.386,203.053 125.359 L 204.800 127.760 204.800 145.723 C 204.800 160.416,204.704 163.649,204.273 163.483 C 201.780 162.527,185.041 150.873,180.900 147.211 L 178.400 145.000 178.400 129.500 L 178.400 114.000 181.474 114.000 C 183.165 114.000,185.730 114.291,187.174 114.647 M250.970 142.352 C 251.090 142.545,252.001 142.611,252.996 142.499 L 254.805 142.295 254.702 176.448 L 254.600 210.600 253.671 210.732 C 253.160 210.804,252.440 210.734,252.071 210.576 C 251.702 210.418,250.822 210.327,250.115 210.374 C 248.495 210.481,248.514 210.567,248.227 201.600 C 247.633 183.062,243.408 177.864,228.481 177.311 L 222.363 177.084 220.581 175.724 C 218.014 173.763,218.236 173.601,223.500 173.592 C 241.937 173.561,247.516 168.109,248.256 149.400 C 248.395 145.880,248.687 142.775,248.903 142.500 C 249.357 141.925,250.649 141.832,250.970 142.352 M293.575 195.063 C 293.671 195.147,292.819 198.947,291.683 203.508 C 290.547 208.069,287.361 220.980,284.603 232.200 C 281.845 243.420,279.415 253.005,279.203 253.500 L 278.817 254.400 254.009 254.400 C 237.497 254.400,229.200 254.264,229.200 253.994 C 229.200 252.305,231.874 250.699,235.222 250.378 C 247.962 249.155,257.195 244.882,265.801 236.225 C 272.204 229.784,278.566 219.250,282.604 208.400 C 282.973 207.410,283.431 206.240,283.622 205.800 C 283.813 205.360,284.592 203.110,285.353 200.800 C 287.708 193.651,287.122 194.352,290.491 194.652 C 292.091 194.794,293.479 194.980,293.575 195.063 M187.709 207.273 C 202.062 219.124,205.064 232.572,194.734 238.747 C 191.552 240.649,181.900 241.862,179.100 240.713 C 178.401 240.425,177.947 201.786,178.635 201.098 C 179.005 200.728,183.430 203.739,187.709 207.273 M152.052 307.441 C 153.152 307.995,153.600 308.745,153.600 310.033 C 153.600 311.079,151.908 311.052,150.462 309.983 C 149.791 309.487,149.083 309.270,148.661 309.432 C 147.505 309.876,148.143 310.562,150.389 311.292 C 153.752 312.384,154.959 314.084,154.006 316.385 C 152.405 320.252,144.400 319.286,144.400 315.226 C 144.400 314.108,146.593 314.074,147.536 315.177 C 147.901 315.605,148.470 315.986,148.800 316.025 C 151.642 316.356,151.393 314.945,148.433 313.940 C 145.568 312.966,144.800 312.221,144.800 310.414 C 144.800 307.131,148.455 305.632,152.052 307.441 M244.144 307.800 C 245.306 308.562,246.539 310.528,246.117 310.949 C 245.550 311.517,243.292 311.164,242.600 310.400 C 241.082 308.722,237.600 310.436,237.600 312.861 C 237.600 314.746,240.388 316.463,242.026 315.586 C 243.107 315.008,242.991 314.400,241.800 314.400 C 240.956 314.400,240.800 314.213,240.800 313.200 L 240.800 312.000 243.573 312.000 C 246.765 312.000,247.258 312.528,246.272 314.889 C 244.147 319.975,237.767 320.083,235.256 315.076 C 232.564 309.707,239.006 304.433,244.144 307.800 M161.953 307.452 C 165.195 309.723,164.011 313.836,159.893 314.609 C 158.442 314.881,158.400 314.938,158.400 316.621 C 158.400 318.558,158.009 318.989,156.577 318.630 L 155.600 318.385 155.600 312.859 C 155.600 309.820,155.720 307.213,155.867 307.067 C 156.428 306.505,161.016 306.796,161.953 307.452 M171.722 308.100 C 172.677 310.126,175.600 317.574,175.600 317.981 C 175.600 319.293,172.716 318.812,172.069 317.392 C 171.340 315.793,168.456 315.955,167.491 317.651 C 166.845 318.786,164.992 319.126,164.134 318.267 C 163.991 318.125,167.392 309.564,168.252 307.900 C 169.101 306.258,170.902 306.362,171.722 308.100 M183.648 307.961 C 185.133 309.794,185.108 312.202,183.589 313.502 C 182.546 314.395,182.580 314.608,184.063 316.480 C 186.176 319.147,183.331 319.917,180.954 317.322 L 179.600 315.844 179.600 317.114 C 179.600 318.560,178.089 319.304,176.995 318.396 C 176.371 317.878,176.095 308.859,176.658 307.392 C 177.094 306.257,182.634 306.708,183.648 307.961 M189.123 308.700 C 189.274 310.793,189.482 310.790,191.014 308.676 C 191.955 307.375,192.527 306.971,193.564 306.871 C 195.853 306.650,195.921 307.341,193.868 309.954 C 191.584 312.862,191.574 312.511,194.029 315.558 C 196.279 318.350,196.278 318.340,194.279 318.665 C 192.769 318.910,192.105 318.449,190.122 315.781 L 189.244 314.600 189.222 316.492 C 189.198 318.558,187.912 319.489,186.595 318.396 C 185.976 317.882,185.694 308.864,186.251 307.411 C 186.845 305.865,188.987 306.826,189.123 308.700 M206.926 307.265 C 208.331 308.013,208.782 308.882,208.766 310.800 C 208.757 311.790,208.873 313.291,209.023 314.137 C 209.786 318.428,204.336 320.543,201.509 317.053 C 200.749 316.115,200.555 313.398,201.219 312.988 C 201.476 312.829,201.537 312.051,201.376 310.977 C 200.916 307.911,204.118 305.770,206.926 307.265 M221.935 307.151 C 223.192 307.948,222.291 309.390,220.404 309.600 C 217.856 309.884,217.618 311.099,220.075 311.276 C 222.970 311.484,222.640 314.400,219.722 314.400 C 217.504 314.400,218.076 315.741,220.404 316.000 C 222.539 316.238,223.338 318.056,221.522 318.542 C 220.331 318.861,216.650 318.871,215.833 318.557 C 215.175 318.305,214.837 307.696,215.467 307.067 C 215.854 306.680,221.303 306.751,221.935 307.151 M230.896 307.808 C 236.513 311.883,231.916 320.372,225.028 318.643 L 224.000 318.385 224.000 312.859 C 224.000 309.820,224.135 307.196,224.300 307.029 C 224.907 306.414,229.766 306.987,230.896 307.808 M255.124 308.277 C 255.246 309.539,255.224 309.556,253.324 309.677 C 250.708 309.844,250.621 310.913,253.200 311.200 C 256.366 311.552,255.737 314.400,252.494 314.400 C 250.187 314.400,250.914 315.768,253.304 315.922 C 255.091 316.037,255.200 316.109,255.200 317.179 C 255.200 318.558,254.662 318.800,251.600 318.800 C 247.830 318.800,248.000 319.083,248.000 312.824 C 248.000 306.340,247.745 306.741,251.782 306.885 L 255.000 307.000 255.124 308.277 M158.545 310.200 C 158.191 311.121,158.687 312.000,159.560 312.000 C 160.372 312.000,161.042 310.716,160.602 310.004 C 160.222 309.388,158.804 309.523,158.545 310.200 M179.600 310.800 C 179.600 311.873,179.731 312.037,180.500 311.928 C 181.159 311.834,181.400 311.532,181.400 310.800 C 181.400 310.068,181.159 309.766,180.500 309.672 C 179.731 309.563,179.600 309.727,179.600 310.800 M204.400 310.167 C 204.400 310.515,204.685 310.800,205.033 310.800 C 205.740 310.800,205.617 309.939,204.875 309.692 C 204.614 309.605,204.400 309.818,204.400 310.167 M227.453 309.881 C 226.745 310.589,227.199 315.600,227.971 315.600 C 228.844 315.600,230.400 313.829,230.400 312.835 C 230.400 311.517,228.111 309.223,227.453 309.881 M169.443 312.233 C 169.033 313.300,169.165 313.600,170.043 313.600 C 170.647 313.600,170.817 313.421,170.643 312.967 C 170.509 312.619,170.400 312.169,170.400 311.967 C 170.400 311.360,169.703 311.553,169.443 312.233 M204.280 313.853 C 203.879 314.254,203.934 315.512,204.364 315.778 C 205.067 316.212,206.043 315.507,205.921 314.653 C 205.800 313.808,204.809 313.324,204.280 313.853 M104.727 328.500 C 104.875 329.786,104.223 329.947,103.507 328.800 C 102.916 327.853,102.177 327.762,101.856 328.597 C 101.622 329.207,101.770 329.386,103.722 330.851 C 104.604 331.513,104.818 331.960,104.722 332.946 C 104.548 334.737,100.000 335.193,100.000 333.420 C 100.000 332.304,100.579 332.046,100.945 333.000 C 101.217 333.711,103.027 333.804,103.444 333.129 C 103.614 332.853,103.357 332.396,102.824 332.029 C 100.491 330.420,99.943 329.654,100.444 328.703 C 101.482 326.732,104.507 326.589,104.727 328.500 M110.020 327.810 C 112.135 328.904,111.518 331.250,108.926 331.967 C 108.034 332.213,107.815 332.491,107.871 333.307 C 107.942 334.345,107.250 334.950,106.548 334.463 C 106.337 334.317,106.238 332.648,106.326 330.700 L 106.482 327.200 107.661 327.200 C 108.309 327.200,109.371 327.475,110.020 327.810 M120.973 327.661 C 122.381 328.302,122.611 329.380,121.633 330.754 C 120.813 331.905,120.813 331.908,121.606 332.917 C 122.599 334.179,122.599 334.400,121.609 334.400 C 121.174 334.400,120.524 333.950,120.163 333.400 C 119.803 332.850,119.329 332.400,119.111 332.400 C 118.887 332.400,118.823 332.836,118.964 333.400 C 119.211 334.384,119.176 334.400,116.808 334.400 C 114.641 334.400,114.400 334.317,114.400 333.573 C 114.400 332.908,114.186 332.771,113.300 332.873 C 112.509 332.964,112.233 333.197,112.318 333.700 C 112.405 334.219,112.163 334.400,111.384 334.400 C 110.806 334.400,110.393 334.263,110.467 334.095 C 110.705 333.551,112.860 329.017,113.163 328.424 C 113.786 327.204,114.272 327.689,115.244 330.494 C 116.621 334.469,117.362 334.405,117.517 330.300 L 117.634 327.200 118.798 327.200 C 119.438 327.200,120.417 327.407,120.973 327.661 M125.124 328.600 C 125.034 329.370,125.111 330.000,125.294 330.000 C 125.477 330.000,125.999 329.370,126.453 328.600 C 126.936 327.781,127.594 327.200,128.040 327.200 C 129.104 327.200,128.990 327.668,127.600 329.000 C 126.113 330.425,126.111 330.692,127.584 332.415 C 128.989 334.059,129.063 334.400,128.012 334.400 C 127.579 334.400,126.825 333.860,126.337 333.200 C 125.198 331.659,124.634 331.670,124.945 333.226 C 125.175 334.375,125.121 334.444,124.095 334.326 C 123.347 334.240,123.053 334.010,123.167 333.600 C 123.259 333.270,123.413 331.695,123.511 330.100 C 123.668 327.526,123.777 327.200,124.487 327.200 C 125.166 327.200,125.263 327.412,125.124 328.600 M134.000 328.026 C 134.000 330.428,135.945 330.683,135.987 328.287 C 136.002 327.444,137.085 326.925,137.649 327.489 C 137.910 327.750,137.715 328.279,137.077 329.043 C 135.966 330.372,135.470 331.722,135.515 333.298 C 135.541 334.204,135.375 334.400,134.583 334.400 C 133.730 334.400,133.647 334.265,133.856 333.221 C 134.025 332.374,133.797 331.515,133.046 330.170 C 131.733 327.822,131.724 327.200,133.000 327.200 C 133.744 327.200,134.000 327.412,134.000 328.026 M142.937 327.644 C 144.847 328.514,145.395 331.536,143.971 333.346 C 142.851 334.770,139.671 334.873,138.416 333.525 C 135.788 330.704,139.385 326.026,142.937 327.644 M147.265 329.674 C 147.090 332.609,147.414 333.600,148.547 333.600 C 150.010 333.600,150.400 332.826,150.400 329.920 C 150.400 327.419,150.468 327.200,151.245 327.200 C 152.009 327.200,152.060 327.343,151.779 328.700 C 151.609 329.525,151.364 331.005,151.235 331.989 C 150.883 334.672,148.138 335.774,146.416 333.925 C 145.127 332.542,145.196 327.087,146.500 327.272 C 147.332 327.390,147.390 327.572,147.265 329.674 M156.581 327.664 C 157.946 328.286,158.118 330.158,156.897 331.099 C 156.307 331.554,156.327 331.705,157.124 332.783 C 158.199 334.237,158.208 334.400,157.209 334.400 C 156.774 334.400,156.124 333.950,155.763 333.400 C 154.908 332.094,154.240 332.110,154.571 333.428 C 154.807 334.366,154.732 334.445,153.715 334.328 C 152.944 334.239,152.655 334.015,152.778 333.600 C 152.876 333.270,153.004 331.740,153.064 330.200 C 153.123 328.660,153.178 327.355,153.186 327.300 C 153.229 327.001,155.709 327.267,156.581 327.664 M165.770 327.867 C 166.171 328.911,165.306 329.497,164.662 328.617 C 163.982 327.687,163.200 328.132,163.200 329.451 C 163.200 330.272,163.345 330.408,164.000 330.200 C 164.658 329.991,164.800 330.128,164.800 330.973 C 164.800 332.010,164.260 332.344,163.796 331.593 C 163.296 330.784,162.717 331.733,162.926 333.020 C 163.066 333.882,162.965 334.405,162.634 334.532 C 161.604 334.927,161.372 334.127,161.526 330.700 L 161.682 327.200 163.598 327.200 C 165.018 327.200,165.581 327.373,165.770 327.867 M168.065 329.674 C 167.890 332.609,168.214 333.600,169.347 333.600 C 170.810 333.600,171.200 332.826,171.200 329.920 C 171.200 327.265,172.227 325.952,172.936 327.700 C 173.098 328.098,173.213 328.096,173.498 327.691 C 173.753 327.331,174.983 327.202,177.708 327.250 L 181.559 327.317 181.323 329.849 C 181.070 332.551,181.484 333.600,182.803 333.600 C 184.021 333.600,184.883 331.755,184.734 329.469 C 184.626 327.805,184.726 327.389,185.264 327.284 C 186.083 327.125,185.851 331.488,184.945 333.282 C 183.159 336.817,178.912 334.140,179.740 330.001 C 179.868 329.358,179.800 328.723,179.587 328.592 C 179.374 328.460,179.200 328.633,179.200 328.976 C 179.200 329.870,178.500 329.747,178.200 328.800 C 177.494 326.577,176.608 328.881,176.885 332.218 C 177.065 334.393,177.062 334.400,175.925 334.400 C 174.955 334.400,174.812 334.266,174.968 333.500 C 175.704 329.890,175.407 326.353,174.554 328.575 C 174.422 328.919,173.905 329.200,173.404 329.200 C 172.417 329.200,172.015 330.077,172.005 332.251 C 171.995 334.535,168.845 335.673,167.256 333.968 C 165.931 332.545,165.967 327.083,167.300 327.272 C 168.132 327.390,168.190 327.572,168.065 329.674 M190.573 327.661 C 191.981 328.302,192.211 329.380,191.233 330.754 C 190.413 331.905,190.413 331.908,191.206 332.917 C 192.199 334.179,192.199 334.400,191.209 334.400 C 190.774 334.400,190.124 333.950,189.763 333.400 C 189.403 332.850,188.929 332.400,188.711 332.400 C 188.487 332.400,188.423 332.836,188.564 333.400 C 188.784 334.277,188.686 334.400,187.761 334.400 C 186.863 334.400,186.742 334.267,186.948 333.500 C 187.081 333.005,187.192 331.385,187.195 329.900 L 187.200 327.200 188.381 327.200 C 189.031 327.200,190.017 327.407,190.573 327.661 M197.528 328.300 C 197.671 329.306,197.013 329.532,196.655 328.600 C 196.270 327.595,194.916 327.879,194.700 329.010 C 194.476 330.182,194.884 330.554,196.004 330.199 C 196.658 329.991,196.800 330.130,196.800 330.973 C 196.800 332.073,196.431 332.271,195.715 331.555 C 195.125 330.965,194.400 331.450,194.400 332.436 C 194.400 333.433,195.478 333.869,196.448 333.263 C 197.461 332.630,197.600 332.673,197.600 333.619 C 197.600 334.370,197.392 334.428,195.100 334.319 C 193.105 334.224,192.634 334.079,192.767 333.600 C 192.859 333.270,193.014 331.686,193.112 330.081 L 193.289 327.161 195.345 327.281 C 197.128 327.384,197.417 327.519,197.528 328.300 M205.501 330.798 C 205.403 334.286,205.371 334.396,204.453 334.398 C 203.667 334.400,203.547 334.248,203.748 333.500 C 203.881 333.005,203.992 331.385,203.995 329.900 C 203.999 327.467,204.079 327.200,204.801 327.200 C 205.550 327.200,205.595 327.432,205.501 330.798 M212.727 328.531 C 212.877 329.802,212.395 329.900,211.400 328.800 C 209.539 326.743,206.995 330.174,208.414 332.826 C 209.162 334.224,211.124 333.863,211.275 332.300 C 211.370 331.308,211.590 331.000,212.200 331.000 C 212.873 331.000,212.979 331.222,212.867 332.400 C 212.522 336.043,206.400 335.219,206.400 331.529 C 206.400 327.903,212.320 325.097,212.727 328.531 M216.149 328.413 C 216.711 329.080,217.485 330.160,217.871 330.813 C 218.918 332.586,219.290 332.261,219.137 329.706 C 219.018 327.714,219.099 327.393,219.757 327.266 C 220.378 327.146,220.469 327.288,220.263 328.060 C 220.124 328.577,220.008 330.215,220.005 331.700 C 219.999 335.128,219.225 335.315,217.220 332.373 C 215.297 329.552,215.061 329.524,215.279 332.143 C 215.447 334.178,215.389 334.400,214.686 334.400 C 214.073 334.400,213.958 334.208,214.148 333.500 C 214.281 333.005,214.392 331.385,214.395 329.900 C 214.401 326.883,214.670 326.655,216.149 328.413 M223.101 330.798 C 223.003 334.286,222.971 334.396,222.053 334.398 C 221.267 334.400,221.147 334.248,221.348 333.500 C 221.481 333.005,221.592 331.385,221.595 329.900 C 221.599 327.467,221.679 327.200,222.401 327.200 C 223.150 327.200,223.195 327.432,223.101 330.798 M229.920 327.680 C 230.184 327.944,230.400 328.394,230.400 328.680 C 230.400 329.437,229.173 329.316,228.577 328.500 C 227.860 327.520,227.440 329.269,227.685 332.218 L 227.866 334.400 226.690 334.400 C 225.834 334.400,225.574 334.244,225.734 333.827 C 226.792 331.070,226.284 326.916,225.117 328.784 C 224.837 329.233,224.471 329.600,224.304 329.600 C 223.930 329.600,223.899 327.834,224.267 327.467 C 224.733 327.001,229.417 327.177,229.920 327.680 M235.320 327.736 C 235.685 328.686,234.859 329.525,234.373 328.700 C 233.595 327.380,232.400 328.092,232.400 329.876 C 232.400 330.328,232.660 330.421,233.400 330.236 C 234.268 330.018,234.400 330.117,234.400 330.992 C 234.400 332.009,233.857 332.339,233.400 331.600 C 232.913 330.812,232.400 331.222,232.400 332.400 C 232.400 333.708,233.304 334.001,234.826 333.186 C 235.473 332.840,235.600 332.905,235.600 333.586 C 235.600 334.321,235.348 334.400,232.992 334.400 C 230.490 334.400,230.394 334.364,230.603 333.500 C 230.723 333.005,230.887 331.430,230.967 330.000 C 231.047 328.570,231.132 327.355,231.156 327.300 C 231.335 326.893,235.150 327.292,235.320 327.736 M240.800 327.967 C 240.800 330.202,242.082 330.708,242.655 328.700 C 242.910 327.809,243.306 327.360,243.913 327.272 C 245.098 327.101,245.032 327.526,243.569 329.516 C 242.605 330.826,242.366 331.517,242.469 332.695 C 242.589 334.076,242.510 334.210,241.505 334.326 C 240.481 334.444,240.425 334.373,240.652 333.241 C 240.830 332.349,240.619 331.561,239.847 330.244 C 238.514 327.970,238.502 327.200,239.800 327.200 C 240.519 327.200,240.800 327.416,240.800 327.967 M250.022 327.612 C 253.353 329.394,251.998 334.400,248.185 334.400 C 245.594 334.400,244.800 333.641,244.800 331.167 C 244.800 328.257,247.629 326.331,250.022 327.612 M254.128 329.790 C 253.870 332.553,254.275 333.600,255.603 333.600 C 256.821 333.600,257.683 331.755,257.534 329.469 C 257.426 327.805,257.526 327.389,258.064 327.284 C 258.883 327.125,258.651 331.488,257.745 333.282 C 257.115 334.528,254.976 335.136,253.675 334.440 C 251.939 333.511,251.881 327.200,253.609 327.200 C 254.304 327.200,254.349 327.426,254.128 329.790 M263.373 327.661 C 264.781 328.302,265.011 329.380,264.033 330.754 C 263.213 331.905,263.213 331.908,264.006 332.917 C 264.999 334.179,264.999 334.400,264.009 334.400 C 263.574 334.400,262.924 333.950,262.563 333.400 C 262.203 332.850,261.729 332.400,261.511 332.400 C 261.287 332.400,261.223 332.836,261.364 333.400 C 261.584 334.277,261.486 334.400,260.561 334.400 C 259.663 334.400,259.542 334.267,259.748 333.500 C 259.881 333.005,259.992 331.385,259.995 329.900 L 260.000 327.200 261.181 327.200 C 261.831 327.200,262.817 327.407,263.373 327.661 M271.805 327.675 C 272.663 328.066,272.828 328.383,272.736 329.454 C 272.674 330.171,272.753 330.887,272.912 331.045 C 273.371 331.505,273.245 333.395,272.720 333.920 C 271.753 334.887,267.952 334.533,268.203 333.500 C 268.323 333.005,268.487 331.430,268.567 330.000 C 268.647 328.570,268.732 327.355,268.756 327.300 C 268.882 327.014,270.898 327.262,271.805 327.675 M277.773 327.661 C 279.183 328.303,279.411 329.380,278.429 330.759 C 277.627 331.886,277.624 331.941,278.338 332.822 C 279.454 334.201,279.904 333.686,281.935 328.700 C 282.573 327.134,283.034 327.329,283.832 329.500 C 284.216 330.545,284.775 332.017,285.074 332.771 C 285.498 333.839,285.511 334.208,285.131 334.443 C 284.426 334.878,283.186 334.101,283.458 333.394 C 283.629 332.947,283.377 332.800,282.443 332.800 C 281.467 332.800,281.200 332.972,281.200 333.600 C 281.200 334.907,277.847 334.749,276.963 333.400 C 276.603 332.850,276.129 332.400,275.911 332.400 C 275.687 332.400,275.623 332.836,275.764 333.400 C 275.981 334.264,275.881 334.400,275.031 334.400 C 273.960 334.400,273.342 333.807,273.993 333.404 C 274.217 333.266,274.400 331.813,274.400 330.176 L 274.400 327.200 275.581 327.200 C 276.231 327.200,277.217 327.407,277.773 327.661 M289.287 329.473 L 291.000 331.746 291.120 329.473 C 291.225 327.477,291.341 327.200,292.071 327.200 C 292.834 327.200,292.875 327.340,292.574 328.900 C 292.394 329.835,292.229 331.363,292.208 332.295 C 292.147 335.051,291.524 335.128,289.779 332.595 C 288.122 330.190,287.208 330.506,287.817 333.276 C 288.029 334.241,287.940 334.400,287.186 334.400 C 286.362 334.400,286.328 334.285,286.624 332.500 C 286.797 331.455,286.900 329.835,286.853 328.900 C 286.740 326.638,287.239 326.756,289.287 329.473 M297.991 327.919 C 300.292 329.046,300.636 331.803,298.701 333.606 C 297.581 334.650,293.280 334.645,293.562 333.600 C 293.651 333.270,293.782 331.740,293.851 330.200 C 293.921 328.660,293.983 327.355,293.989 327.300 C 294.030 326.925,296.851 327.361,297.991 327.919 M108.276 328.257 C 108.124 328.409,108.000 329.133,108.000 329.867 C 108.000 331.496,109.056 331.715,109.444 330.166 C 109.707 329.118,108.837 327.696,108.276 328.257 M119.489 328.244 C 118.885 328.848,119.178 330.463,119.867 330.329 C 120.234 330.258,120.596 330.013,120.672 329.784 C 120.863 329.211,119.846 327.887,119.489 328.244 M139.900 328.988 C 138.493 330.922,139.248 333.600,141.200 333.600 C 143.109 333.600,143.924 330.812,142.577 328.889 C 141.773 327.741,140.780 327.778,139.900 328.988 M154.707 328.974 C 154.439 330.377,154.885 330.918,155.774 330.268 C 156.377 329.828,156.422 329.588,156.037 328.868 C 155.427 327.729,154.938 327.768,154.707 328.974 M189.089 328.244 C 188.485 328.848,188.778 330.463,189.467 330.329 C 189.834 330.258,190.196 330.013,190.272 329.784 C 190.463 329.211,189.446 327.887,189.089 328.244 M247.118 328.700 C 245.543 330.521,246.107 333.600,248.016 333.600 C 250.194 333.600,251.089 330.983,249.571 329.054 C 248.603 327.823,247.958 327.730,247.118 328.700 M261.889 328.244 C 261.285 328.848,261.578 330.463,262.267 330.329 C 262.634 330.258,262.996 330.013,263.072 329.784 C 263.263 329.211,262.246 327.887,261.889 328.244 M270.185 328.919 C 269.841 330.287,270.215 330.756,271.013 329.958 C 271.530 329.441,271.533 329.262,271.037 328.582 C 270.486 327.829,270.455 327.841,270.185 328.919 M276.289 328.244 C 275.685 328.848,275.978 330.463,276.667 330.329 C 277.034 330.258,277.396 330.013,277.472 329.784 C 277.663 329.211,276.646 327.887,276.289 328.244 M295.387 329.327 C 294.943 331.694,295.295 333.385,296.261 333.523 C 298.210 333.800,299.097 330.395,297.474 328.870 C 296.193 327.666,295.678 327.779,295.387 329.327 M112.862 331.021 C 112.938 331.413,113.242 331.814,113.538 331.913 C 113.882 332.028,114.027 331.835,113.938 331.379 C 113.862 330.987,113.558 330.586,113.262 330.487 C 112.918 330.372,112.773 330.565,112.862 331.021 M282.212 330.917 C 282.041 331.312,282.013 331.747,282.151 331.884 C 282.557 332.290,282.884 331.720,282.697 330.931 C 282.532 330.233,282.510 330.232,282.212 330.917 M270.000 332.371 C 270.000 333.347,270.170 333.600,270.827 333.600 C 271.492 333.600,271.628 333.386,271.527 332.503 C 271.338 330.868,270.000 330.751,270.000 332.371 M199.928 334.469 C 199.858 334.946,199.550 335.420,199.244 335.521 C 198.925 335.626,198.800 335.523,198.951 335.280 C 199.095 335.046,199.030 334.742,198.807 334.604 C 198.115 334.177,198.358 333.600,199.228 333.600 C 199.850 333.600,200.024 333.816,199.928 334.469 " stroke="none" fill="#fbfbfb" fill-rule="evenodd"></path><path id="path1" d="M170.000 98.871 C 152.951 101.228,138.515 111.279,135.054 123.200 C 134.894 123.750,134.480 125.190,134.133 126.400 C 133.105 129.985,133.240 139.009,134.377 142.800 C 138.295 155.860,150.177 168.087,174.845 184.442 C 178.450 186.832,183.865 190.616,185.580 191.944 C 186.614 192.745,189.247 194.775,191.430 196.456 C 198.460 201.869,205.231 209.329,208.097 214.819 C 210.363 219.160,211.199 222.624,211.184 227.600 C 211.134 243.184,200.650 252.000,182.167 252.000 C 174.441 252.000,168.098 250.671,161.600 247.691 C 151.060 242.856,141.499 229.815,138.220 215.800 C 136.502 208.455,136.137 206.007,135.571 198.000 C 135.116 191.554,134.974 191.031,133.742 191.268 C 133.027 191.406,133.000 192.540,133.000 222.805 L 133.000 254.200 134.031 254.320 C 134.931 254.425,135.125 254.226,135.568 252.749 C 137.681 245.695,144.984 245.211,159.000 251.195 C 164.604 253.588,164.346 253.487,167.000 254.325 C 169.343 255.064,171.894 255.581,177.233 256.397 C 185.792 257.707,198.937 256.566,207.475 253.772 C 221.431 249.206,228.609 240.842,231.584 225.680 C 232.119 222.956,232.121 214.908,231.589 212.477 C 231.362 211.445,230.978 209.700,230.734 208.600 C 227.969 196.127,218.085 185.787,193.000 169.129 C 169.462 153.498,160.142 144.274,157.513 134.005 C 154.739 123.170,155.857 115.405,161.017 109.665 C 165.400 104.791,170.302 103.115,180.200 103.105 C 186.654 103.099,188.017 103.301,193.000 105.007 C 208.894 110.447,219.634 125.974,220.999 145.486 C 221.290 149.653,221.744 150.737,222.995 150.257 C 223.526 150.054,223.600 147.013,223.600 125.413 L 223.600 100.800 222.627 100.800 C 221.569 100.800,221.415 101.114,221.007 104.113 C 220.154 110.386,214.453 110.794,203.354 105.374 C 190.393 99.045,181.410 97.293,170.000 98.871 M235.200 105.541 L 235.200 106.681 243.500 106.925 C 252.353 107.185,256.029 107.707,261.882 109.534 C 266.499 110.975,271.340 114.932,274.686 120.000 C 277.137 123.713,278.761 127.104,281.486 134.200 C 282.162 135.959,284.400 137.495,284.400 136.200 C 284.400 135.793,274.328 105.870,273.932 105.100 C 273.597 104.448,272.254 104.400,254.386 104.400 L 235.200 104.400 235.200 105.541 M181.924 114.700 C 181.856 114.865,181.890 122.366,182.000 131.368 L 182.200 147.736 185.000 149.902 C 187.978 152.205,202.861 162.295,203.827 162.666 C 204.319 162.855,204.400 160.429,204.400 145.487 L 204.400 128.088 202.671 125.744 C 200.234 122.442,196.816 119.505,193.242 117.646 C 188.885 115.380,182.345 113.677,181.924 114.700 M252.284 143.050 C 252.128 143.206,252.000 145.523,252.000 148.200 C 252.000 158.116,249.936 165.279,246.026 168.937 C 241.986 172.715,237.484 173.935,227.400 173.982 C 220.606 174.014,219.489 174.230,220.691 175.278 C 222.203 176.598,223.220 176.800,228.354 176.800 C 246.042 176.800,251.192 182.563,251.945 203.200 L 252.200 210.200 253.200 210.200 L 254.200 210.200 254.200 176.600 C 254.200 143.079,254.198 143.000,253.384 142.883 C 252.934 142.819,252.439 142.894,252.284 143.050 M290.929 195.700 C 290.726 195.975,290.154 197.460,289.657 199.000 C 282.646 220.744,273.683 235.067,262.294 242.731 C 254.238 248.152,247.671 250.281,236.289 251.162 C 232.134 251.483,230.400 252.102,230.400 253.262 C 230.400 254.025,278.728 253.665,278.939 252.900 C 279.045 252.515,279.695 249.860,280.383 247.000 C 281.718 241.445,282.067 240.033,282.800 237.200 C 283.648 233.925,283.945 232.725,287.994 216.200 C 290.204 207.180,292.190 199.247,292.406 198.572 C 293.268 195.882,292.252 193.907,290.929 195.700 M182.125 204.651 C 181.988 205.009,181.993 211.084,182.136 218.151 C 182.279 225.218,182.398 233.205,182.398 235.900 L 182.400 240.800 183.900 240.800 C 204.280 240.799,205.825 222.607,186.757 207.165 C 182.487 203.707,182.487 203.707,182.125 204.651 M146.705 307.826 C 144.033 309.276,144.989 312.174,148.545 313.400 C 151.169 314.305,151.949 315.194,150.974 316.169 C 150.024 317.119,148.279 316.948,147.200 315.800 C 145.745 314.252,144.280 314.681,145.193 316.388 C 146.488 318.806,151.362 319.082,153.087 316.835 C 154.597 314.868,153.352 312.759,150.114 311.797 C 147.693 311.078,146.864 310.287,147.600 309.400 C 148.307 308.549,150.146 308.657,151.000 309.600 C 152.159 310.881,153.512 310.480,152.953 309.021 C 152.323 307.381,148.776 306.702,146.705 307.826 M156.175 307.722 C 155.522 309.423,156.213 318.200,157.000 318.200 C 157.645 318.200,157.825 317.890,157.930 316.605 C 158.093 314.602,158.587 314.000,160.067 314.000 C 163.019 314.000,164.280 310.180,161.969 308.236 C 160.573 307.061,156.565 306.706,156.175 307.722 M168.868 307.876 C 167.528 310.388,164.854 317.814,165.174 318.134 C 165.748 318.708,166.769 318.133,167.204 316.990 C 167.803 315.413,171.928 315.645,172.718 317.300 C 173.193 318.295,174.318 318.749,174.890 318.177 C 175.012 318.054,174.161 315.579,172.997 312.677 C 170.816 307.234,169.825 306.082,168.868 307.876 M176.975 307.722 C 176.864 308.009,176.825 310.484,176.887 313.222 L 177.000 318.200 178.000 318.200 C 178.891 318.200,179.013 318.014,179.123 316.500 C 179.278 314.357,179.543 314.371,181.115 316.600 C 182.046 317.922,182.651 318.400,183.392 318.400 C 184.693 318.400,184.662 318.040,183.200 316.200 C 181.759 314.387,181.763 314.438,183.007 313.258 C 184.507 311.835,184.421 309.154,182.838 308.027 C 181.465 307.049,177.316 306.833,176.975 307.722 M186.585 307.694 C 186.469 307.997,186.425 310.484,186.487 313.222 L 186.600 318.200 187.600 318.200 C 188.537 318.200,188.608 318.055,188.720 315.900 C 188.868 313.052,188.990 313.058,191.134 316.012 C 192.365 317.707,193.128 318.400,193.767 318.400 C 195.306 318.400,195.223 317.983,193.180 315.459 C 190.795 312.512,190.812 312.996,193.000 310.178 C 195.094 307.481,195.188 307.102,193.714 307.273 C 192.955 307.362,192.172 308.003,191.120 309.398 C 189.134 312.032,188.866 312.046,188.722 309.526 C 188.599 307.379,187.175 306.158,186.585 307.694 M202.636 308.431 C 201.478 309.807,201.414 310.105,202.031 311.257 C 202.356 311.865,202.311 312.380,201.846 313.359 C 200.023 317.202,204.917 320.073,207.867 316.890 C 208.689 316.003,208.820 315.564,208.606 314.406 C 208.379 313.181,208.112 310.835,208.027 309.316 C 207.906 307.153,204.220 306.548,202.636 308.431 M215.782 307.704 C 215.667 308.001,215.625 310.484,215.687 313.222 L 215.800 318.200 218.600 318.200 C 221.199 318.200,221.409 318.135,221.528 317.300 C 221.641 316.502,221.482 316.399,220.128 316.394 C 216.887 316.381,216.425 313.953,219.596 313.600 C 222.067 313.325,222.466 312.000,220.078 312.000 C 217.006 312.000,216.588 309.536,219.604 309.200 C 221.067 309.037,221.400 308.852,221.400 308.200 C 221.400 307.192,216.156 306.729,215.782 307.704 M224.575 307.722 C 224.464 308.009,224.425 310.484,224.487 313.222 L 224.600 318.200 225.768 318.333 C 232.277 319.075,235.521 311.151,229.982 308.038 C 228.273 307.077,224.898 306.880,224.575 307.722 M236.989 308.989 C 232.399 313.580,237.605 320.697,243.238 317.531 C 244.741 316.686,246.613 313.868,246.159 313.134 C 245.763 312.492,241.200 312.737,241.200 313.400 C 241.200 313.769,241.575 314.000,242.176 314.000 C 243.575 314.000,243.885 314.802,242.819 315.665 C 240.883 317.233,237.859 315.987,237.378 313.425 C 236.792 310.302,240.189 307.946,242.624 309.787 C 243.901 310.754,245.738 310.604,245.189 309.579 C 243.644 306.693,239.578 306.401,236.989 308.989 M248.975 307.722 C 248.864 308.009,248.825 310.484,248.887 313.222 L 249.000 318.200 250.973 318.325 C 254.971 318.578,256.630 316.827,252.796 316.400 C 250.102 316.100,250.023 313.871,252.700 313.677 C 254.055 313.579,254.400 313.401,254.400 312.800 C 254.400 312.199,254.055 312.021,252.700 311.923 C 250.102 311.735,250.096 309.521,252.693 309.174 C 254.643 308.914,254.991 308.674,254.662 307.817 C 254.350 307.004,249.283 306.919,248.975 307.722 M160.720 309.280 C 162.052 310.612,160.028 313.585,158.598 312.398 C 157.980 311.885,157.819 310.538,158.243 309.433 C 158.529 308.687,160.034 308.594,160.720 309.280 M181.669 309.462 C 182.685 310.382,182.582 311.463,181.403 312.235 C 179.883 313.231,179.200 312.728,179.200 310.613 C 179.200 308.589,180.193 308.126,181.669 309.462 M206.165 309.716 C 206.480 310.216,206.429 310.542,205.964 311.007 C 205.140 311.832,204.000 311.358,204.000 310.191 C 204.000 308.751,205.367 308.452,206.165 309.716 M228.631 309.434 C 231.825 310.292,231.049 316.000,227.738 316.000 L 226.400 316.000 226.400 312.867 C 226.400 309.082,226.537 308.872,228.631 309.434 M170.720 311.728 C 171.497 313.878,171.356 314.400,170.000 314.400 C 168.650 314.400,168.388 313.341,169.264 311.419 C 169.876 310.076,170.143 310.133,170.720 311.728 M206.174 313.571 C 206.964 314.445,206.735 315.786,205.728 316.172 C 203.858 316.890,202.464 314.763,203.994 313.525 C 205.116 312.616,205.313 312.620,206.174 313.571 M180.267 330.267 C 179.857 330.677,179.951 332.322,180.400 332.600 C 180.638 332.747,180.800 332.271,180.800 331.424 C 180.800 329.962,180.728 329.805,180.267 330.267 M231.500 330.533 C 231.027 331.687,231.117 333.043,231.631 332.529 C 231.868 332.292,232.003 331.581,231.931 330.949 C 231.824 330.006,231.746 329.931,231.500 330.533 M253.067 330.267 C 252.657 330.677,252.751 332.322,253.200 332.600 C 253.438 332.747,253.600 332.271,253.600 331.424 C 253.600 329.962,253.528 329.805,253.067 330.267 M269.100 330.533 C 268.627 331.687,268.717 333.043,269.231 332.529 C 269.468 332.292,269.603 331.581,269.531 330.949 C 269.424 330.006,269.346 329.931,269.100 330.533 M226.667 331.867 C 226.248 332.285,226.355 334.000,226.800 334.000 C 227.020 334.000,227.200 333.460,227.200 332.800 C 227.200 331.557,227.119 331.415,226.667 331.867 " stroke="none" fill="#091140" fill-rule="evenodd"></path><path id="path2" d="M260.601 110.001 C 260.736 110.221,261.026 110.400,261.246 110.400 C 263.973 110.400,270.793 117.846,273.945 124.266 C 275.700 127.841,276.238 129.121,278.114 134.200 C 278.686 135.748,281.200 136.910,281.200 135.627 C 281.200 130.973,272.998 117.319,267.904 113.491 C 265.399 111.609,260.000 109.029,260.601 110.001 M178.685 114.248 C 178.528 114.405,178.400 121.308,178.400 129.588 L 178.400 144.643 179.719 145.922 C 180.445 146.625,181.120 147.200,181.219 147.200 C 181.319 147.200,181.310 139.775,181.200 130.700 L 181.000 114.200 179.985 114.082 C 179.427 114.017,178.842 114.092,178.685 114.248 M248.457 149.700 C 247.976 156.729,247.747 158.316,246.712 161.800 C 245.079 167.300,241.223 170.821,235.036 172.462 C 231.765 173.330,231.116 173.744,233.615 173.369 C 246.656 171.412,250.524 166.167,251.066 149.700 L 251.306 142.400 250.132 142.400 L 248.957 142.400 248.457 149.700 M238.400 178.581 C 238.400 178.681,239.006 179.050,239.747 179.401 C 245.402 182.085,247.684 187.944,248.383 201.581 C 248.810 209.918,248.953 210.585,250.258 210.330 C 250.950 210.194,250.999 209.673,250.992 202.592 C 250.982 191.952,249.783 187.095,246.109 182.802 C 244.703 181.159,238.400 177.708,238.400 178.581 M287.791 194.701 C 287.566 194.865,286.792 196.800,286.071 199.000 C 284.701 203.177,283.473 206.586,282.107 210.000 C 273.234 232.183,260.046 245.475,243.200 249.215 C 241.990 249.484,240.550 249.858,240.000 250.047 C 238.370 250.606,243.117 249.993,245.600 249.324 C 246.810 248.998,248.340 248.587,249.000 248.411 C 258.988 245.754,268.997 238.093,275.667 228.000 C 279.950 221.519,282.386 216.647,285.970 207.400 C 286.908 204.980,287.824 202.640,288.007 202.200 C 290.026 197.334,289.905 193.152,287.791 194.701 M178.800 221.000 L 178.800 240.800 180.100 240.800 L 181.400 240.800 181.317 221.700 C 181.227 201.154,181.232 201.200,179.156 201.200 C 178.953 201.200,178.800 209.711,178.800 221.000 M235.300 250.687 C 235.905 250.778,236.895 250.778,237.500 250.687 C 238.105 250.595,237.610 250.520,236.400 250.520 C 235.190 250.520,234.695 250.595,235.300 250.687 " stroke="none" fill="#e48d22" fill-rule="evenodd"></path><path id="path3" d="M171.000 98.229 C 147.208 101.438,132.800 115.005,132.800 134.200 C 132.800 151.349,142.312 162.716,176.200 186.070 C 205.805 206.471,214.131 218.527,209.818 234.747 C 206.354 247.775,191.709 253.995,172.465 250.611 C 150.448 246.740,136.032 224.726,136.003 194.932 L 136.000 191.264 134.784 190.996 C 132.264 190.443,132.399 188.637,132.406 222.749 C 132.409 239.827,132.563 254.038,132.748 254.330 C 133.498 255.513,135.770 254.729,136.018 253.200 C 136.984 247.247,146.536 245.811,155.359 250.293 C 173.850 259.685,200.690 259.884,215.848 250.742 C 233.501 240.095,238.102 214.905,225.780 196.370 C 220.336 188.180,211.647 180.799,192.600 168.183 C 164.569 149.616,156.904 140.260,156.746 124.420 C 156.596 109.397,166.772 101.742,184.374 103.637 C 204.535 105.808,218.094 121.518,220.469 145.458 C 220.993 150.742,221.608 151.748,223.562 150.515 C 224.206 150.109,224.804 103.778,224.197 101.277 C 223.695 99.208,221.044 100.238,220.754 102.615 C 219.863 109.918,215.120 110.547,203.541 104.896 C 191.420 98.981,181.102 96.867,171.000 98.229 M183.871 98.806 C 190.253 99.635,194.612 101.105,203.354 105.374 C 214.453 110.794,220.154 110.386,221.007 104.113 C 221.415 101.114,221.569 100.800,222.627 100.800 L 223.600 100.800 223.600 125.413 C 223.600 147.013,223.526 150.054,222.995 150.257 C 221.744 150.737,221.290 149.653,220.999 145.486 C 219.500 124.057,207.914 109.025,188.800 103.711 C 182.221 101.882,169.624 103.304,164.760 106.426 C 156.683 111.609,154.199 121.062,157.513 134.005 C 160.142 144.274,169.462 153.498,193.000 169.129 C 218.085 185.787,227.969 196.127,230.734 208.600 C 230.978 209.700,231.362 211.445,231.589 212.477 C 232.121 214.908,232.119 222.956,231.584 225.680 C 228.609 240.842,221.431 249.206,207.475 253.772 C 203.536 255.061,201.556 255.511,195.967 256.387 C 192.597 256.916,180.664 256.922,177.233 256.397 C 171.894 255.581,169.343 255.064,167.000 254.325 C 164.346 253.487,164.604 253.588,159.000 251.195 C 144.984 245.211,137.681 245.695,135.568 252.749 C 135.125 254.226,134.931 254.425,134.031 254.320 L 133.000 254.200 133.000 222.805 C 133.000 192.540,133.027 191.406,133.742 191.268 C 134.974 191.031,135.116 191.554,135.571 198.000 C 136.137 206.007,136.502 208.455,138.220 215.800 C 141.499 229.815,151.060 242.856,161.600 247.691 C 166.024 249.720,168.488 250.437,174.967 251.582 C 183.128 253.024,194.768 251.287,200.669 247.746 C 211.119 241.478,214.406 226.905,208.097 214.819 C 205.231 209.329,198.460 201.869,191.430 196.456 C 189.247 194.775,186.614 192.745,185.580 191.944 C 183.865 190.616,178.450 186.832,174.845 184.442 C 150.177 168.087,138.295 155.860,134.377 142.800 C 133.240 139.009,133.105 129.985,134.133 126.400 C 134.480 125.190,134.894 123.750,135.054 123.200 C 139.616 107.484,162.529 96.034,183.871 98.806 M234.667 103.867 C 234.520 104.013,234.400 104.800,234.400 105.615 L 234.400 107.096 242.100 107.355 C 246.335 107.497,250.700 107.693,251.800 107.790 C 253.663 107.955,253.704 107.940,252.400 107.572 C 251.630 107.354,247.445 107.065,243.100 106.930 L 235.200 106.684 235.200 105.314 L 235.200 103.944 254.180 104.072 C 266.790 104.157,273.302 104.342,273.582 104.622 C 273.908 104.948,282.857 131.005,284.198 135.530 C 284.444 136.362,284.357 136.446,283.377 136.330 C 282.305 136.203,281.901 135.772,281.419 134.243 C 281.013 132.951,280.735 133.835,281.100 135.256 C 281.416 136.482,281.593 136.611,283.123 136.723 C 285.399 136.890,285.578 137.733,279.511 119.761 L 274.222 104.095 271.853 103.848 C 268.652 103.513,235.003 103.530,234.667 103.867 M254.800 108.400 C 256.342 108.894,257.164 108.894,256.400 108.400 C 256.070 108.187,255.350 108.027,254.800 108.046 L 253.800 108.080 254.800 108.400 M183.000 114.391 C 190.729 115.297,198.104 119.553,202.671 125.744 L 204.400 128.088 204.400 145.487 C 204.400 160.449,204.319 162.855,203.825 162.665 C 202.929 162.321,188.881 152.875,186.200 150.813 C 182.444 147.926,180.897 146.903,181.594 147.770 C 182.872 149.360,201.997 162.610,204.273 163.483 C 204.704 163.649,204.800 160.416,204.800 145.723 L 204.800 127.760 203.053 125.359 C 198.360 118.910,189.231 113.870,182.574 114.055 L 180.600 114.109 183.000 114.391 M280.006 131.900 C 280.024 132.777,280.788 133.359,280.794 132.500 C 280.797 132.005,280.620 131.600,280.400 131.600 C 280.180 131.600,280.003 131.735,280.006 131.900 M251.700 142.665 C 251.334 142.813,251.200 144.354,251.200 148.433 C 251.200 155.798,251.940 155.854,252.089 148.500 L 252.200 143.000 253.200 143.000 L 254.200 143.000 254.200 176.600 L 254.200 210.200 253.200 210.200 L 252.200 210.200 252.089 204.009 C 251.937 195.526,251.270 195.318,251.119 203.706 C 251.054 207.352,251.090 210.321,251.200 210.304 C 251.310 210.287,251.702 210.406,252.071 210.568 C 252.440 210.730,253.160 210.804,253.671 210.732 L 254.600 210.600 254.702 176.500 L 254.804 142.400 253.502 142.432 C 252.786 142.449,251.975 142.554,251.700 142.665 M248.531 145.400 C 248.533 146.940,248.605 147.521,248.692 146.691 C 248.779 145.861,248.777 144.601,248.689 143.891 C 248.600 143.181,248.529 143.860,248.531 145.400 M229.905 173.483 C 230.402 173.579,231.122 173.575,231.505 173.475 C 231.887 173.375,231.480 173.296,230.600 173.301 C 229.720 173.305,229.407 173.387,229.905 173.483 M218.800 173.982 C 218.800 175.649,222.534 177.200,226.558 177.203 C 228.781 177.205,231.590 177.293,232.800 177.398 C 234.375 177.534,234.716 177.488,234.000 177.234 C 233.450 177.039,230.786 176.862,228.080 176.840 C 222.779 176.797,221.524 176.447,220.078 174.608 C 219.249 173.555,218.800 173.335,218.800 173.982 M289.353 196.400 C 289.327 197.390,289.165 198.722,288.995 199.359 C 288.772 200.191,288.814 200.439,289.142 200.236 C 289.394 200.080,289.600 199.601,289.600 199.171 C 289.600 198.741,289.808 197.987,290.062 197.495 C 290.316 197.003,290.650 196.330,290.803 196.000 C 291.912 193.613,293.288 195.820,292.406 198.572 C 292.190 199.247,290.204 207.180,287.994 216.200 C 285.784 225.220,283.801 233.275,283.588 234.100 C 283.374 234.925,283.035 236.275,282.833 237.100 C 282.631 237.925,282.279 239.320,282.049 240.200 C 281.820 241.080,281.070 244.140,280.383 247.000 C 279.695 249.860,279.045 252.515,278.939 252.900 C 278.730 253.659,230.400 254.028,230.400 253.270 C 230.400 252.689,232.257 251.172,233.448 250.779 C 234.548 250.416,234.537 250.408,233.200 250.598 C 231.845 250.791,229.200 253.037,229.200 253.994 C 229.200 254.264,237.497 254.400,254.009 254.400 L 278.817 254.400 279.203 253.500 C 279.415 253.005,281.581 244.500,284.015 234.600 C 286.448 224.700,289.601 211.916,291.020 206.192 C 294.113 193.715,294.063 194.904,291.500 194.737 L 289.400 194.600 289.353 196.400 M178.583 201.300 C 178.478 201.575,178.439 210.530,178.496 221.200 L 178.600 240.600 178.800 220.700 C 178.910 209.755,178.949 200.800,178.887 200.800 C 178.826 200.800,178.689 201.025,178.583 201.300 M181.200 202.570 C 181.200 202.657,183.263 204.375,185.785 206.388 C 195.675 214.283,200.000 220.588,200.000 227.107 C 200.000 236.101,196.018 239.554,184.200 240.811 C 181.077 241.144,181.101 241.148,185.200 240.977 C 201.661 240.291,206.010 226.834,194.129 213.350 C 191.001 209.801,181.200 201.628,181.200 202.570 M248.509 208.000 C 248.509 208.990,248.587 209.395,248.682 208.900 C 248.778 208.405,248.778 207.595,248.682 207.100 C 248.587 206.605,248.509 207.010,248.509 208.000 M147.405 307.013 C 143.211 308.481,143.787 312.361,148.433 313.940 C 151.393 314.945,151.642 316.356,148.800 316.025 C 148.470 315.986,147.901 315.605,147.536 315.177 C 146.593 314.074,144.400 314.108,144.400 315.226 C 144.400 319.286,152.405 320.252,154.006 316.385 C 154.959 314.084,153.752 312.384,150.389 311.292 C 148.143 310.562,147.505 309.876,148.661 309.432 C 149.083 309.270,149.791 309.487,150.462 309.983 C 151.908 311.052,153.600 311.079,153.600 310.033 C 153.600 307.474,150.460 305.943,147.405 307.013 M239.114 306.911 C 235.551 307.778,233.633 311.839,235.256 315.076 C 237.767 320.083,244.147 319.975,246.272 314.889 C 247.258 312.528,246.765 312.000,243.573 312.000 L 240.800 312.000 240.800 313.200 C 240.800 314.213,240.956 314.400,241.800 314.400 C 242.991 314.400,243.107 315.008,242.026 315.586 C 240.388 316.463,237.600 314.746,237.600 312.861 C 237.600 310.436,241.082 308.722,242.600 310.400 C 244.068 312.023,246.715 311.369,245.804 309.609 C 244.690 307.454,241.752 306.269,239.114 306.911 M155.867 307.067 C 155.720 307.213,155.600 309.820,155.600 312.859 L 155.600 318.385 156.577 318.630 C 158.009 318.989,158.400 318.558,158.400 316.621 C 158.400 314.938,158.442 314.881,159.893 314.609 C 164.011 313.836,165.195 309.723,161.953 307.452 C 161.016 306.796,156.428 306.505,155.867 307.067 M168.252 307.900 C 167.392 309.564,163.991 318.125,164.134 318.267 C 164.992 319.126,166.845 318.786,167.491 317.651 C 168.456 315.955,171.340 315.793,172.069 317.392 C 172.716 318.812,175.600 319.293,175.600 317.981 C 175.600 317.574,172.677 310.126,171.722 308.100 C 170.902 306.362,169.101 306.258,168.252 307.900 M176.658 307.392 C 176.095 308.859,176.371 317.878,176.995 318.396 C 178.089 319.304,179.600 318.560,179.600 317.114 L 179.600 315.844 180.954 317.322 C 183.331 319.917,186.176 319.147,184.063 316.480 C 182.580 314.608,182.546 314.395,183.589 313.502 C 185.108 312.202,185.133 309.794,183.648 307.961 C 182.634 306.708,177.094 306.257,176.658 307.392 M186.251 307.411 C 185.694 308.864,185.976 317.882,186.595 318.396 C 187.912 319.489,189.198 318.558,189.222 316.492 L 189.244 314.600 190.122 315.781 C 192.105 318.449,192.769 318.910,194.279 318.665 C 196.278 318.340,196.279 318.350,194.029 315.558 C 191.574 312.511,191.584 312.862,193.868 309.954 C 195.921 307.341,195.853 306.650,193.564 306.871 C 192.527 306.971,191.955 307.375,191.014 308.676 C 189.482 310.790,189.274 310.793,189.123 308.700 C 188.987 306.826,186.845 305.865,186.251 307.411 M202.326 308.013 C 201.227 309.112,201.138 309.390,201.376 310.977 C 201.537 312.051,201.476 312.829,201.219 312.988 C 200.555 313.398,200.749 316.115,201.509 317.053 C 204.336 320.543,209.786 318.428,209.023 314.137 C 208.873 313.291,208.757 311.790,208.766 310.800 C 208.799 307.037,204.962 305.377,202.326 308.013 M215.467 307.067 C 214.837 307.696,215.175 318.305,215.833 318.557 C 216.650 318.871,220.331 318.861,221.522 318.542 C 223.338 318.056,222.539 316.238,220.404 316.000 C 218.076 315.741,217.504 314.400,219.722 314.400 C 222.640 314.400,222.970 311.484,220.075 311.276 C 217.618 311.099,217.856 309.884,220.404 309.600 C 222.291 309.390,223.192 307.948,221.935 307.151 C 221.303 306.751,215.854 306.680,215.467 307.067 M224.300 307.029 C 224.135 307.196,224.000 309.820,224.000 312.859 L 224.000 318.385 225.028 318.643 C 231.916 320.372,236.513 311.883,230.896 307.808 C 229.766 306.987,224.907 306.414,224.300 307.029 M248.282 307.052 C 248.127 307.207,248.000 309.804,248.000 312.824 C 248.000 319.083,247.830 318.800,251.600 318.800 C 254.662 318.800,255.200 318.558,255.200 317.179 C 255.200 316.109,255.091 316.037,253.304 315.922 C 250.914 315.768,250.187 314.400,252.494 314.400 C 255.737 314.400,256.366 311.552,253.200 311.200 C 250.621 310.913,250.708 309.844,253.324 309.677 C 255.224 309.556,255.246 309.539,255.124 308.277 L 255.000 307.000 251.782 306.885 C 250.011 306.822,248.436 306.897,248.282 307.052 M151.571 307.785 C 152.740 308.390,153.371 309.400,152.978 310.036 C 152.607 310.635,151.770 310.451,151.000 309.600 C 150.146 308.657,148.307 308.549,147.600 309.400 C 146.864 310.287,147.693 311.078,150.114 311.797 C 153.352 312.759,154.597 314.868,153.087 316.835 C 151.362 319.082,146.488 318.806,145.193 316.388 C 144.280 314.681,145.745 314.252,147.200 315.800 C 148.279 316.948,150.024 317.119,150.974 316.169 C 151.949 315.194,151.169 314.305,148.545 313.400 C 145.926 312.497,144.902 311.243,145.344 309.482 C 145.846 307.481,149.210 306.564,151.571 307.785 M161.969 308.236 C 164.280 310.180,163.019 314.000,160.067 314.000 C 158.587 314.000,158.093 314.602,157.930 316.605 C 157.825 317.890,157.645 318.200,157.000 318.200 C 156.213 318.200,155.522 309.423,156.175 307.722 C 156.565 306.706,160.573 307.061,161.969 308.236 M172.997 312.677 C 174.161 315.579,175.012 318.054,174.890 318.177 C 174.318 318.749,173.193 318.295,172.718 317.300 C 171.928 315.645,167.803 315.413,167.204 316.990 C 166.769 318.133,165.748 318.708,165.174 318.134 C 164.854 317.814,167.528 310.388,168.868 307.876 C 169.825 306.082,170.816 307.234,172.997 312.677 M182.838 308.027 C 184.421 309.154,184.507 311.835,183.007 313.258 C 181.763 314.438,181.759 314.387,183.200 316.200 C 184.662 318.040,184.693 318.400,183.392 318.400 C 182.651 318.400,182.046 317.922,181.115 316.600 C 179.543 314.371,179.278 314.357,179.123 316.500 C 179.013 318.014,178.891 318.200,178.000 318.200 L 177.000 318.200 176.887 313.222 C 176.825 310.484,176.864 308.009,176.975 307.722 C 177.316 306.833,181.465 307.049,182.838 308.027 M188.722 309.526 C 188.866 312.046,189.134 312.032,191.120 309.398 C 192.172 308.003,192.955 307.362,193.714 307.273 C 195.188 307.102,195.094 307.481,193.000 310.178 C 190.812 312.996,190.795 312.512,193.180 315.459 C 195.223 317.983,195.306 318.400,193.767 318.400 C 193.128 318.400,192.365 317.707,191.134 316.012 C 188.990 313.058,188.868 313.052,188.720 315.900 C 188.608 318.055,188.537 318.200,187.600 318.200 L 186.600 318.200 186.487 313.222 C 186.358 307.555,186.452 307.095,187.698 307.272 C 188.486 307.384,188.615 307.669,188.722 309.526 M207.125 308.016 C 207.606 308.464,208.012 309.049,208.027 309.316 C 208.112 310.835,208.379 313.181,208.606 314.406 C 208.820 315.564,208.689 316.003,207.867 316.890 C 204.917 320.073,200.023 317.202,201.846 313.359 C 202.311 312.380,202.356 311.865,202.031 311.257 C 200.596 308.577,204.833 305.881,207.125 308.016 M221.400 308.200 C 221.400 308.852,221.067 309.037,219.604 309.200 C 216.588 309.536,217.006 312.000,220.078 312.000 C 222.466 312.000,222.067 313.325,219.596 313.600 C 216.425 313.953,216.887 316.381,220.128 316.394 C 221.482 316.399,221.641 316.502,221.528 317.300 C 221.409 318.135,221.199 318.200,218.600 318.200 L 215.800 318.200 215.687 313.222 C 215.543 306.851,215.398 307.137,218.695 307.282 C 221.094 307.387,221.400 307.491,221.400 308.200 M229.982 308.038 C 235.521 311.151,232.277 319.075,225.768 318.333 L 224.600 318.200 224.487 313.222 C 224.425 310.484,224.464 308.009,224.575 307.722 C 224.898 306.880,228.273 307.077,229.982 308.038 M243.474 307.980 C 245.413 309.162,245.949 310.404,244.514 310.387 C 243.901 310.380,243.051 310.110,242.624 309.787 C 240.189 307.946,236.792 310.302,237.378 313.425 C 237.859 315.987,240.883 317.233,242.819 315.665 C 243.885 314.802,243.575 314.000,242.176 314.000 C 241.575 314.000,241.200 313.769,241.200 313.400 C 241.200 312.737,245.763 312.492,246.159 313.134 C 246.613 313.868,244.741 316.686,243.238 317.531 C 240.592 319.018,238.192 318.447,236.221 315.863 C 232.751 311.314,238.571 304.990,243.474 307.980 M254.662 307.817 C 254.991 308.674,254.643 308.914,252.693 309.174 C 250.096 309.521,250.102 311.735,252.700 311.923 C 254.055 312.021,254.400 312.199,254.400 312.800 C 254.400 313.401,254.055 313.579,252.700 313.677 C 250.023 313.871,250.102 316.100,252.796 316.400 C 256.630 316.827,254.971 318.578,250.973 318.325 L 249.000 318.200 248.887 313.222 C 248.825 310.484,248.864 308.009,248.975 307.722 C 249.283 306.919,254.350 307.004,254.662 307.817 M158.243 309.433 C 157.819 310.538,157.980 311.885,158.598 312.398 C 160.028 313.585,162.052 310.612,160.720 309.280 C 160.034 308.594,158.529 308.687,158.243 309.433 M179.200 310.613 C 179.200 312.728,179.883 313.231,181.403 312.235 C 183.097 311.125,182.194 308.800,180.069 308.800 C 179.305 308.800,179.200 309.019,179.200 310.613 M204.500 309.067 C 203.764 309.361,203.891 311.073,204.671 311.372 C 205.651 311.748,206.707 310.577,206.165 309.716 C 205.686 308.958,205.224 308.777,204.500 309.067 M226.667 309.467 C 226.520 309.613,226.400 311.143,226.400 312.867 L 226.400 316.000 227.738 316.000 C 230.175 316.000,231.526 313.152,230.174 310.863 C 229.358 309.482,227.422 308.711,226.667 309.467 M160.602 310.004 C 161.042 310.716,160.372 312.000,159.560 312.000 C 158.687 312.000,158.191 311.121,158.545 310.200 C 158.804 309.523,160.222 309.388,160.602 310.004 M181.400 310.800 C 181.400 311.532,181.159 311.834,180.500 311.928 C 179.731 312.037,179.600 311.873,179.600 310.800 C 179.600 309.727,179.731 309.563,180.500 309.672 C 181.159 309.766,181.400 310.068,181.400 310.800 M205.508 310.325 C 205.595 310.586,205.382 310.800,205.033 310.800 C 204.685 310.800,204.400 310.515,204.400 310.167 C 204.400 309.460,205.261 309.583,205.508 310.325 M229.779 311.292 C 230.613 312.482,230.561 313.287,229.571 314.546 C 227.996 316.548,227.200 315.985,227.200 312.867 C 227.200 309.308,228.033 308.799,229.779 311.292 M169.264 311.419 C 168.388 313.341,168.650 314.400,170.000 314.400 C 171.356 314.400,171.497 313.878,170.720 311.728 C 170.143 310.133,169.876 310.076,169.264 311.419 M170.400 311.967 C 170.400 312.169,170.509 312.619,170.643 312.967 C 170.817 313.421,170.647 313.600,170.043 313.600 C 169.165 313.600,169.033 313.300,169.443 312.233 C 169.703 311.553,170.400 311.360,170.400 311.967 M203.994 313.525 C 202.464 314.763,203.858 316.890,205.728 316.172 C 206.735 315.786,206.964 314.445,206.174 313.571 C 205.313 312.620,205.116 312.616,203.994 313.525 M205.921 314.653 C 206.043 315.507,205.067 316.212,204.364 315.778 C 203.934 315.512,203.879 314.254,204.280 313.853 C 204.809 313.324,205.800 313.808,205.921 314.653 M101.360 327.496 C 99.559 328.741,99.989 330.074,102.824 332.029 C 103.357 332.396,103.614 332.853,103.444 333.129 C 103.027 333.804,101.217 333.711,100.945 333.000 C 100.579 332.046,100.000 332.304,100.000 333.420 C 100.000 335.193,104.548 334.737,104.722 332.946 C 104.818 331.960,104.604 331.513,103.722 330.851 C 101.770 329.386,101.622 329.207,101.856 328.597 C 102.177 327.762,102.916 327.853,103.507 328.800 C 104.223 329.947,104.875 329.786,104.727 328.500 C 104.596 327.364,102.468 326.729,101.360 327.496 M106.326 330.700 C 106.238 332.648,106.337 334.317,106.548 334.463 C 107.250 334.950,107.942 334.345,107.871 333.307 C 107.815 332.491,108.034 332.213,108.926 331.967 C 112.638 330.941,111.645 327.200,107.661 327.200 L 106.482 327.200 106.326 330.700 M117.517 330.300 C 117.362 334.405,116.621 334.469,115.244 330.494 C 114.272 327.689,113.786 327.204,113.163 328.424 C 112.860 329.017,110.705 333.551,110.467 334.095 C 110.393 334.263,110.806 334.400,111.384 334.400 C 112.163 334.400,112.405 334.219,112.318 333.700 C 112.233 333.197,112.509 332.964,113.300 332.873 C 114.186 332.771,114.400 332.908,114.400 333.573 C 114.400 334.317,114.641 334.400,116.808 334.400 C 119.176 334.400,119.211 334.384,118.964 333.400 C 118.823 332.836,118.887 332.400,119.111 332.400 C 119.329 332.400,119.803 332.850,120.163 333.400 C 120.524 333.950,121.174 334.400,121.609 334.400 C 122.599 334.400,122.599 334.179,121.606 332.917 C 120.813 331.908,120.813 331.905,121.633 330.754 C 122.998 328.837,121.693 327.200,118.798 327.200 L 117.634 327.200 117.517 330.300 M123.511 330.100 C 123.413 331.695,123.259 333.270,123.167 333.600 C 123.053 334.010,123.347 334.240,124.095 334.326 C 125.121 334.444,125.175 334.375,124.945 333.226 C 124.634 331.670,125.198 331.659,126.337 333.200 C 126.825 333.860,127.579 334.400,128.012 334.400 C 129.063 334.400,128.989 334.059,127.584 332.415 C 126.111 330.692,126.113 330.425,127.600 329.000 C 128.990 327.668,129.104 327.200,128.040 327.200 C 127.594 327.200,126.936 327.781,126.453 328.600 C 125.999 329.370,125.477 330.000,125.294 330.000 C 125.111 330.000,125.034 329.370,125.124 328.600 C 125.263 327.412,125.166 327.200,124.487 327.200 C 123.777 327.200,123.668 327.526,123.511 330.100 M132.000 327.750 C 132.000 328.052,132.471 329.141,133.046 330.170 C 133.797 331.515,134.025 332.374,133.856 333.221 C 133.647 334.265,133.730 334.400,134.583 334.400 C 135.375 334.400,135.541 334.204,135.515 333.298 C 135.470 331.722,135.966 330.372,137.077 329.043 C 137.715 328.279,137.910 327.750,137.649 327.489 C 137.085 326.925,136.002 327.444,135.987 328.287 C 135.945 330.683,134.000 330.428,134.000 328.026 C 134.000 327.412,133.744 327.200,133.000 327.200 C 132.419 327.200,132.000 327.430,132.000 327.750 M138.831 328.431 C 137.321 329.940,137.141 332.156,138.416 333.525 C 139.671 334.873,142.851 334.770,143.971 333.346 C 146.870 329.660,142.132 325.129,138.831 328.431 M145.600 330.097 C 145.600 335.435,150.564 337.102,151.235 331.989 C 151.364 331.005,151.609 329.525,151.779 328.700 C 152.060 327.343,152.009 327.200,151.245 327.200 C 150.468 327.200,150.400 327.419,150.400 329.920 C 150.400 332.826,150.010 333.600,148.547 333.600 C 147.414 333.600,147.090 332.609,147.265 329.674 C 147.390 327.572,147.332 327.390,146.500 327.272 C 145.636 327.150,145.600 327.264,145.600 330.097 M153.186 327.300 C 153.178 327.355,153.123 328.660,153.064 330.200 C 153.004 331.740,152.876 333.270,152.778 333.600 C 152.655 334.015,152.944 334.239,153.715 334.328 C 154.732 334.445,154.807 334.366,154.571 333.428 C 154.240 332.110,154.908 332.094,155.763 333.400 C 156.124 333.950,156.774 334.400,157.209 334.400 C 158.208 334.400,158.199 334.237,157.124 332.783 C 156.327 331.705,156.307 331.554,156.897 331.099 C 158.118 330.158,157.946 328.286,156.581 327.664 C 155.709 327.267,153.229 327.001,153.186 327.300 M161.526 330.700 C 161.372 334.127,161.604 334.927,162.634 334.532 C 162.965 334.405,163.066 333.882,162.926 333.020 C 162.717 331.733,163.296 330.784,163.796 331.593 C 164.260 332.344,164.800 332.010,164.800 330.973 C 164.800 330.128,164.658 329.991,164.000 330.200 C 163.345 330.408,163.200 330.272,163.200 329.451 C 163.200 328.132,163.982 327.687,164.662 328.617 C 165.306 329.497,166.171 328.911,165.770 327.867 C 165.581 327.373,165.018 327.200,163.598 327.200 L 161.682 327.200 161.526 330.700 M166.400 330.097 C 166.400 333.780,167.245 335.027,169.492 334.663 C 171.353 334.361,171.999 333.741,172.005 332.251 C 172.015 330.077,172.417 329.200,173.404 329.200 C 173.905 329.200,174.422 328.919,174.554 328.575 C 175.407 326.353,175.704 329.890,174.968 333.500 C 174.812 334.266,174.955 334.400,175.925 334.400 C 177.062 334.400,177.065 334.393,176.885 332.218 C 176.608 328.881,177.494 326.577,178.200 328.800 C 178.500 329.747,179.200 329.870,179.200 328.976 C 179.200 328.633,179.374 328.460,179.587 328.592 C 179.800 328.723,179.868 329.358,179.740 330.001 C 178.912 334.140,183.159 336.817,184.945 333.282 C 185.851 331.488,186.083 327.125,185.264 327.284 C 184.726 327.389,184.626 327.805,184.734 329.469 C 184.883 331.755,184.021 333.600,182.803 333.600 C 181.484 333.600,181.070 332.551,181.323 329.849 L 181.559 327.317 177.708 327.250 C 174.983 327.202,173.753 327.331,173.498 327.691 C 173.213 328.096,173.098 328.098,172.936 327.700 C 172.227 325.952,171.200 327.265,171.200 329.920 C 171.200 332.826,170.810 333.600,169.347 333.600 C 168.214 333.600,167.890 332.609,168.065 329.674 C 168.190 327.572,168.132 327.390,167.300 327.272 C 166.436 327.150,166.400 327.264,166.400 330.097 M187.195 329.900 C 187.192 331.385,187.081 333.005,186.948 333.500 C 186.742 334.267,186.863 334.400,187.761 334.400 C 188.686 334.400,188.784 334.277,188.564 333.400 C 188.423 332.836,188.487 332.400,188.711 332.400 C 188.929 332.400,189.403 332.850,189.763 333.400 C 190.124 333.950,190.774 334.400,191.209 334.400 C 192.199 334.400,192.199 334.179,191.206 332.917 C 190.413 331.908,190.413 331.905,191.233 330.754 C 192.602 328.832,191.292 327.200,188.381 327.200 L 187.200 327.200 187.195 329.900 M193.112 330.081 C 193.014 331.686,192.859 333.270,192.767 333.600 C 192.634 334.079,193.105 334.224,195.100 334.319 C 197.392 334.428,197.600 334.370,197.600 333.619 C 197.600 332.673,197.461 332.630,196.448 333.263 C 195.478 333.869,194.400 333.433,194.400 332.436 C 194.400 331.450,195.125 330.965,195.715 331.555 C 196.431 332.271,196.800 332.073,196.800 330.973 C 196.800 330.130,196.658 329.991,196.004 330.199 C 194.884 330.554,194.476 330.182,194.700 329.010 C 194.916 327.879,196.270 327.595,196.655 328.600 C 197.013 329.532,197.671 329.306,197.528 328.300 C 197.417 327.519,197.128 327.384,195.345 327.281 L 193.289 327.161 193.112 330.081 M203.995 329.900 C 203.992 331.385,203.881 333.005,203.748 333.500 C 203.547 334.248,203.667 334.400,204.453 334.398 C 205.371 334.396,205.403 334.286,205.501 330.798 C 205.595 327.432,205.550 327.200,204.801 327.200 C 204.079 327.200,203.999 327.467,203.995 329.900 M208.147 327.898 C 204.935 330.540,206.114 334.675,210.032 334.513 C 212.489 334.411,212.691 334.260,212.867 332.400 C 212.979 331.222,212.873 331.000,212.200 331.000 C 211.590 331.000,211.370 331.308,211.275 332.300 C 211.124 333.863,209.162 334.224,208.414 332.826 C 206.995 330.174,209.539 326.743,211.400 328.800 C 212.395 329.900,212.877 329.802,212.727 328.531 C 212.563 327.146,209.565 326.732,208.147 327.898 M214.395 329.900 C 214.392 331.385,214.281 333.005,214.148 333.500 C 213.958 334.208,214.073 334.400,214.686 334.400 C 215.389 334.400,215.447 334.178,215.279 332.143 C 215.061 329.524,215.297 329.552,217.220 332.373 C 219.225 335.315,219.999 335.128,220.005 331.700 C 220.008 330.215,220.124 328.577,220.263 328.060 C 220.469 327.288,220.378 327.146,219.757 327.266 C 219.099 327.393,219.018 327.714,219.137 329.706 C 219.290 332.261,218.918 332.586,217.871 330.813 C 215.436 326.691,214.402 326.419,214.395 329.900 M221.595 329.900 C 221.592 331.385,221.481 333.005,221.348 333.500 C 221.147 334.248,221.267 334.400,222.053 334.398 C 222.971 334.396,223.003 334.286,223.101 330.798 C 223.195 327.432,223.150 327.200,222.401 327.200 C 221.679 327.200,221.599 327.467,221.595 329.900 M224.267 327.467 C 223.899 327.834,223.930 329.600,224.304 329.600 C 224.471 329.600,224.837 329.233,225.117 328.784 C 226.284 326.916,226.792 331.070,225.734 333.827 C 225.574 334.244,225.834 334.400,226.690 334.400 L 227.866 334.400 227.685 332.218 C 227.440 329.269,227.860 327.520,228.577 328.500 C 229.173 329.316,230.400 329.437,230.400 328.680 C 230.400 327.426,225.313 326.420,224.267 327.467 M231.156 327.300 C 231.132 327.355,231.047 328.570,230.967 330.000 C 230.887 331.430,230.723 333.005,230.603 333.500 C 230.394 334.364,230.490 334.400,232.992 334.400 C 235.348 334.400,235.600 334.321,235.600 333.586 C 235.600 332.905,235.473 332.840,234.826 333.186 C 233.304 334.001,232.400 333.708,232.400 332.400 C 232.400 331.222,232.913 330.812,233.400 331.600 C 233.857 332.339,234.400 332.009,234.400 330.992 C 234.400 330.117,234.268 330.018,233.400 330.236 C 232.660 330.421,232.400 330.328,232.400 329.876 C 232.400 328.092,233.595 327.380,234.373 328.700 C 234.859 329.525,235.685 328.686,235.320 327.736 C 235.150 327.292,231.335 326.893,231.156 327.300 M238.800 327.829 C 238.800 328.175,239.271 329.261,239.847 330.244 C 240.619 331.561,240.830 332.349,240.652 333.241 C 240.425 334.373,240.481 334.444,241.505 334.326 C 242.510 334.210,242.589 334.076,242.469 332.695 C 242.366 331.517,242.605 330.826,243.569 329.516 C 245.032 327.526,245.098 327.101,243.913 327.272 C 243.306 327.360,242.910 327.809,242.655 328.700 C 242.082 330.708,240.800 330.202,240.800 327.967 C 240.800 327.416,240.519 327.200,239.800 327.200 C 239.157 327.200,238.800 327.425,238.800 327.829 M246.100 328.233 C 244.525 329.475,244.208 332.540,245.531 333.738 C 246.637 334.738,249.904 334.633,250.829 333.567 C 253.914 330.009,249.773 325.338,246.100 328.233 M252.693 327.500 C 252.427 328.016,252.383 331.747,252.630 332.903 C 253.107 335.143,256.671 335.407,257.745 333.282 C 258.651 331.488,258.883 327.125,258.064 327.284 C 257.526 327.389,257.426 327.805,257.534 329.469 C 257.683 331.755,256.821 333.600,255.603 333.600 C 254.275 333.600,253.870 332.553,254.128 329.790 C 254.354 327.368,253.480 325.973,252.693 327.500 M259.995 329.900 C 259.992 331.385,259.881 333.005,259.748 333.500 C 259.542 334.267,259.663 334.400,260.561 334.400 C 261.486 334.400,261.584 334.277,261.364 333.400 C 261.223 332.836,261.287 332.400,261.511 332.400 C 261.729 332.400,262.203 332.850,262.563 333.400 C 262.924 333.950,263.574 334.400,264.009 334.400 C 264.999 334.400,264.999 334.179,264.006 332.917 C 263.213 331.908,263.213 331.905,264.033 330.754 C 265.402 328.832,264.092 327.200,261.181 327.200 L 260.000 327.200 259.995 329.900 M268.756 327.300 C 268.732 327.355,268.647 328.570,268.567 330.000 C 268.487 331.430,268.323 333.005,268.203 333.500 C 267.952 334.533,271.753 334.887,272.720 333.920 C 273.245 333.395,273.371 331.505,272.912 331.045 C 272.753 330.887,272.674 330.171,272.736 329.454 C 272.828 328.383,272.663 328.066,271.805 327.675 C 270.898 327.262,268.882 327.014,268.756 327.300 M274.400 330.176 C 274.400 331.813,274.217 333.266,273.993 333.404 C 273.342 333.807,273.960 334.400,275.031 334.400 C 275.881 334.400,275.981 334.264,275.764 333.400 C 275.623 332.836,275.687 332.400,275.911 332.400 C 276.129 332.400,276.603 332.850,276.963 333.400 C 277.847 334.749,281.200 334.907,281.200 333.600 C 281.200 332.972,281.467 332.800,282.443 332.800 C 283.377 332.800,283.629 332.947,283.458 333.394 C 283.186 334.101,284.426 334.878,285.131 334.443 C 285.511 334.208,285.498 333.839,285.074 332.771 C 284.775 332.017,284.216 330.545,283.832 329.500 C 283.034 327.329,282.573 327.134,281.935 328.700 C 279.904 333.686,279.454 334.201,278.338 332.822 C 277.624 331.941,277.627 331.886,278.429 330.759 C 279.802 328.832,278.496 327.200,275.581 327.200 L 274.400 327.200 274.400 330.176 M286.853 328.900 C 286.900 329.835,286.797 331.455,286.624 332.500 C 286.328 334.285,286.362 334.400,287.186 334.400 C 287.940 334.400,288.029 334.241,287.817 333.276 C 287.208 330.506,288.122 330.190,289.779 332.595 C 291.524 335.128,292.147 335.051,292.208 332.295 C 292.229 331.363,292.394 329.835,292.574 328.900 C 292.875 327.340,292.834 327.200,292.071 327.200 C 291.341 327.200,291.225 327.477,291.120 329.473 L 291.000 331.746 289.287 329.473 C 287.239 326.756,286.740 326.638,286.853 328.900 M293.989 327.300 C 293.983 327.355,293.921 328.660,293.851 330.200 C 293.782 331.740,293.651 333.270,293.562 333.600 C 293.280 334.645,297.581 334.650,298.701 333.606 C 300.636 331.803,300.292 329.046,297.991 327.919 C 296.851 327.361,294.030 326.925,293.989 327.300 M109.444 330.166 C 109.056 331.715,108.000 331.496,108.000 329.867 C 108.000 328.229,108.370 327.799,109.128 328.557 C 109.499 328.927,109.611 329.501,109.444 330.166 M120.672 329.784 C 120.596 330.013,120.234 330.258,119.867 330.329 C 119.178 330.463,118.885 328.848,119.489 328.244 C 119.846 327.887,120.863 329.211,120.672 329.784 M142.577 328.889 C 143.924 330.812,143.109 333.600,141.200 333.600 C 139.248 333.600,138.493 330.922,139.900 328.988 C 140.780 327.778,141.773 327.741,142.577 328.889 M156.037 328.868 C 156.422 329.588,156.377 329.828,155.774 330.268 C 154.885 330.918,154.439 330.377,154.707 328.974 C 154.938 327.768,155.427 327.729,156.037 328.868 M190.272 329.784 C 190.196 330.013,189.834 330.258,189.467 330.329 C 188.778 330.463,188.485 328.848,189.089 328.244 C 189.446 327.887,190.463 329.211,190.272 329.784 M249.571 329.054 C 251.089 330.983,250.194 333.600,248.016 333.600 C 246.107 333.600,245.543 330.521,247.118 328.700 C 247.958 327.730,248.603 327.823,249.571 329.054 M263.072 329.784 C 262.996 330.013,262.634 330.258,262.267 330.329 C 261.578 330.463,261.285 328.848,261.889 328.244 C 262.246 327.887,263.263 329.211,263.072 329.784 M271.013 329.958 C 270.215 330.756,269.841 330.287,270.185 328.919 C 270.455 327.841,270.486 327.829,271.037 328.582 C 271.533 329.262,271.530 329.441,271.013 329.958 M277.472 329.784 C 277.396 330.013,277.034 330.258,276.667 330.329 C 275.978 330.463,275.685 328.848,276.289 328.244 C 276.646 327.887,277.663 329.211,277.472 329.784 M297.474 328.870 C 299.097 330.395,298.210 333.800,296.261 333.523 C 295.295 333.385,294.943 331.694,295.387 329.327 C 295.678 327.779,296.193 327.666,297.474 328.870 M180.800 331.424 C 180.800 332.271,180.638 332.747,180.400 332.600 C 179.737 332.190,179.961 330.000,180.667 330.000 C 180.740 330.000,180.800 330.641,180.800 331.424 M231.631 332.529 C 231.117 333.043,231.027 331.687,231.500 330.533 C 231.746 329.931,231.824 330.006,231.931 330.949 C 232.003 331.581,231.868 332.292,231.631 332.529 M253.600 331.424 C 253.600 332.271,253.438 332.747,253.200 332.600 C 252.537 332.190,252.761 330.000,253.467 330.000 C 253.540 330.000,253.600 330.641,253.600 331.424 M269.231 332.529 C 268.717 333.043,268.627 331.687,269.100 330.533 C 269.346 329.931,269.424 330.006,269.531 330.949 C 269.603 331.581,269.468 332.292,269.231 332.529 M113.938 331.379 C 114.027 331.835,113.882 332.028,113.538 331.913 C 113.242 331.814,112.938 331.413,112.862 331.021 C 112.773 330.565,112.918 330.372,113.262 330.487 C 113.558 330.586,113.862 330.987,113.938 331.379 M282.635 331.898 C 282.198 332.335,281.899 331.640,282.212 330.917 C 282.510 330.232,282.532 330.233,282.697 330.931 C 282.793 331.334,282.765 331.769,282.635 331.898 M271.527 332.503 C 271.628 333.386,271.492 333.600,270.827 333.600 C 270.170 333.600,270.000 333.347,270.000 332.371 C 270.000 330.751,271.338 330.868,271.527 332.503 M227.200 332.800 C 227.200 333.460,227.020 334.000,226.800 334.000 C 226.355 334.000,226.248 332.285,226.667 331.867 C 227.119 331.415,227.200 331.557,227.200 332.800 M198.400 333.976 C 198.400 334.183,198.583 334.466,198.807 334.604 C 199.030 334.742,199.095 335.046,198.951 335.280 C 198.800 335.523,198.925 335.626,199.244 335.521 C 200.200 335.205,200.186 333.600,199.228 333.600 C 198.773 333.600,198.400 333.769,198.400 333.976 " stroke="none" fill="#9499ae" fill-rule="evenodd"></path><path id="path4" d="M243.900 104.300 C 248.795 104.363,256.805 104.363,261.700 104.300 C 266.595 104.236,262.590 104.184,252.800 104.184 C 243.010 104.184,239.005 104.236,243.900 104.300 M256.400 108.400 C 256.730 108.613,257.360 108.788,257.800 108.788 C 258.462 108.788,258.497 108.721,258.000 108.400 C 257.670 108.187,257.040 108.012,256.600 108.012 C 255.938 108.012,255.903 108.079,256.400 108.400 M260.553 109.636 C 269.048 113.082,272.932 116.864,277.395 126.033 C 279.270 129.886,279.908 130.894,279.399 129.200 C 276.757 120.410,269.278 112.105,261.600 109.437 C 259.026 108.543,258.230 108.694,260.553 109.636 M181.200 130.524 C 181.200 144.598,181.280 146.746,181.830 147.424 C 182.176 147.851,182.365 148.006,182.249 147.769 C 182.133 147.533,182.011 139.928,181.978 130.869 C 181.943 121.464,181.764 114.400,181.559 114.400 C 181.353 114.400,181.200 121.277,181.200 130.524 M251.067 154.267 C 250.920 154.413,250.800 154.998,250.800 155.567 C 250.800 167.475,243.561 173.040,227.500 173.478 C 223.155 173.596,219.600 173.807,219.600 173.947 C 219.599 174.310,233.016 174.021,235.400 173.606 C 245.538 171.841,250.124 166.876,251.384 156.300 C 251.652 154.045,251.603 153.730,251.067 154.267 M237.044 177.951 C 243.195 179.849,246.363 182.140,248.308 186.096 C 249.655 188.836,250.800 193.179,250.800 195.546 C 250.800 196.456,250.980 197.200,251.200 197.200 C 251.687 197.200,251.687 196.912,251.198 193.532 C 249.818 183.990,244.833 178.636,236.200 177.423 C 234.959 177.248,235.148 177.367,237.044 177.951 M288.400 201.005 C 288.400 201.338,288.234 201.923,288.030 202.305 C 287.827 202.687,286.897 204.980,285.963 207.400 C 282.418 216.584,279.959 221.504,275.667 228.000 C 268.997 238.093,258.988 245.754,249.000 248.411 C 248.340 248.587,246.810 248.998,245.600 249.325 C 243.660 249.849,238.979 250.550,234.800 250.941 C 234.030 251.013,234.522 251.101,235.893 251.136 C 244.111 251.347,254.320 248.097,262.294 242.731 C 271.434 236.581,279.507 225.458,285.251 211.102 C 288.076 204.041,289.274 200.400,288.772 200.400 C 288.567 200.400,288.400 200.672,288.400 201.005 M181.405 203.643 C 180.886 204.998,181.393 240.531,181.934 240.712 C 182.378 240.859,182.425 237.694,182.210 222.154 C 181.963 204.190,181.884 202.393,181.405 203.643 " stroke="none" fill="#a36320" fill-rule="evenodd"></path></g></svg>